<?xml version="1.0" encoding="UTF-8" standalone="no"?>
<!DOCTYPE svg PUBLIC "-//W3C//DTD SVG 1.1//EN" "http://www.w3.org/Graphics/SVG/1.1/DTD/svg11.dtd">
<svg xmlns="http://www.w3.org/2000/svg" xmlns:xl="http://www.w3.org/1999/xlink" version="1.1" viewBox="51 40 147 147" width="147pt" height="147pt" xmlns:dc="http://purl.org/dc/elements/1.1/"><metadata> Produced by OmniGraffle 6.5.3 <dc:date>2016-06-04 13:35:25 +0000</dc:date></metadata><defs/><g stroke="none" stroke-opacity="1" stroke-dasharray="none" fill="none" fill-opacity="1"><title>Canvas 1</title><g><title>Layer 1</title><rect x="53.858267" y="42.519685" width="141.73228" height="141.73228" fill="white"/><rect x="53.858267" y="42.519685" width="141.73228" height="141.73228" stroke="#a5a5a5" stroke-linecap="round" stroke-linejoin="round" stroke-width="1"/><rect x="70.32987" y="69.816558" width="108.76612" height="88.9236" fill="white"/><rect x="70.32987" y="69.816558" width="108.76612" height="88.9236" stroke="#89b726" stroke-linecap="round" stroke-linejoin="round" stroke-width="3"/><rect x="76.535433" y="75.48585" width="17.007874" height="12.3881664" fill="white"/><rect x="76.535433" y="75.48585" width="17.007874" height="12.3881664" stroke="#89b726" stroke-linecap="round" stroke-linejoin="round" stroke-width="3"/><rect x="76.535433" y="96.37795" width="17.007874" height="12.3881664" fill="white"/><rect x="76.535433" y="96.37795" width="17.007874" height="12.3881664" stroke="#89b726" stroke-linecap="round" stroke-linejoin="round" stroke-width="3"/><rect x="76.535433" y="117.270056" width="17.007874" height="12.3881664" fill="white"/><rect x="76.535433" y="117.270056" width="17.007874" height="12.3881664" stroke="#89b726" stroke-linecap="round" stroke-linejoin="round" stroke-width="3"/><rect x="76.535433" y="138.16216" width="17.007874" height="12.3881664" fill="white"/><rect x="76.535433" y="138.16216" width="17.007874" height="12.3881664" stroke="#89b726" stroke-linecap="round" stroke-linejoin="round" stroke-width="3"/><rect x="155.90551" y="75.48585" width="17.007874" height="12.3881664" fill="white"/><rect x="155.90551" y="75.48585" width="17.007874" height="12.3881664" stroke="#89b726" stroke-linecap="round" stroke-linejoin="round" stroke-width="3"/><rect x="155.90551" y="96.37795" width="17.007874" height="12.3881664" fill="white"/><rect x="155.90551" y="96.37795" width="17.007874" height="12.3881664" stroke="#89b726" stroke-linecap="round" stroke-linejoin="round" stroke-width="3"/><rect x="155.90551" y="117.270056" width="17.007874" height="12.3881664" fill="white"/><rect x="155.90551" y="117.270056" width="17.007874" height="12.3881664" stroke="#89b726" stroke-linecap="round" stroke-linejoin="round" stroke-width="3"/><rect x="155.90551" y="138.16216" width="17.007874" height="12.3881664" fill="white"/><rect x="155.90551" y="138.16216" width="17.007874" height="12.3881664" stroke="#89b726" stroke-linecap="round" stroke-linejoin="round" stroke-width="3"/></g></g></svg>
