<?xml version="1.0" encoding="UTF-8" standalone="no"?>
<!DOCTYPE svg PUBLIC "-//W3C//DTD SVG 1.1//EN" "http://www.w3.org/Graphics/SVG/1.1/DTD/svg11.dtd">
<svg xmlns="http://www.w3.org/2000/svg" xmlns:xl="http://www.w3.org/1999/xlink" version="1.1" viewBox="90 53 143 143" width="143pt" height="143pt" xmlns:dc="http://purl.org/dc/elements/1.1/"><metadata> Produced by OmniGraffle 6.6 <dc:date>2016-07-17 12:00:07 +0000</dc:date></metadata><defs/><g stroke="none" stroke-opacity="1" stroke-dasharray="none" fill="none" fill-opacity="1"><title>Canvas 1</title><g><title>Layer 2</title><rect x="90.70866" y="53.858267" width="141.73228" height="141.73228" fill="white"/><path d="M 138.89764 73.700787 C 138.89764 73.700787 116.22047 86.659167 116.22047 107.716535 C 116.22047 128.7739 141.73228 123.712035 141.73228 147.40157 C 141.73228 171.09111 121.296465 178.58268 121.296465 178.58268 C 121.296465 178.58268 130.3937 163.1946 130.3937 147.40157 C 130.3937 131.60855 130.3937 119.05512 130.3937 107.716535 C 130.3937 96.37795 138.89764 73.700787 138.89764 73.700787 Z" fill="#001dfa"/><path d="M 172.91338 73.700787 C 172.91338 73.700787 150.23622 86.659167 150.23622 107.716535 C 150.23622 128.7739 175.74803 123.712035 175.74803 147.40157 C 175.74803 171.09111 155.31221 178.58268 155.31221 178.58268 C 155.31221 178.58268 164.40945 163.1946 164.40945 147.40157 C 164.40945 131.60855 164.40945 119.05512 164.40945 107.716535 C 164.40945 96.37795 172.91338 73.700787 172.91338 73.700787 Z" fill="#001dfa"/><path d="M 206.92913 73.700787 C 206.92913 73.700787 184.25197 86.659167 184.25197 107.716535 C 184.25197 128.7739 209.76378 123.712035 209.76378 147.40157 C 209.76378 171.09111 189.32796 178.58268 189.32796 178.58268 C 189.32796 178.58268 198.4252 163.1946 198.4252 147.40157 C 198.4252 131.60855 198.4252 119.05512 198.4252 107.716535 C 198.4252 96.37795 206.92913 73.700787 206.92913 73.700787 Z" fill="#001dfa"/></g></g></svg>
